STARTFONT 2.1
FONT -Fondu--Medium-R-Normal--13-120-75-75-P-55-MacRoman-1
SIZE 12 75 75
FONTBOUNDINGBOX 9 13 0 -2
COMMENT Created by Fondu from a mac NFNT/FONT resource
STARTPROPERTIES 17
FOUNDRY "Fondu"
FAMILY_NAME ""
WEIGHT_NAME "Medium"
SLANT "R"
SETWIDTH_NAME "Normal"
ADD_STYLE_NAME ""
PIXEL_SIZE 13
POINT_SIZE 120
RESOLUTION_X 75
RESOLUTION_Y 75
SPACING "P"
AVERAGE_WIDTH 55
CHARSET_REGISTRY "MacRoman"
CHARSET_ENCODING "1"
FONT_ASCENT 11
FONT_DESCENT 2
FACE_NAME "nameless"
ENDPROPERTIES
CHARS 223
STARTCHAR space
ENCODING 32
SWIDTH 153 0
DWIDTH 2 0
BBX 0 0 0 -2
BITMAP
ENDCHAR
STARTCHAR exclam
ENCODING 33
SWIDTH 230 0
DWIDTH 3 0
BBX 1 8 1 0
BITMAP
80
80
80
80
80
80
00
80
ENDCHAR
STARTCHAR quotedbl
ENCODING 34
SWIDTH 307 0
DWIDTH 4 0
BBX 3 2 0 6
BITMAP
A0
A0
ENDCHAR
STARTCHAR numbersign
ENCODING 35
SWIDTH 461 0
DWIDTH 6 0
BBX 5 8 0 0
BITMAP
28
28
F8
50
50
F8
A0
A0
ENDCHAR
STARTCHAR dollar
ENCODING 36
SWIDTH 461 0
DWIDTH 6 0
BBX 5 10 0 -1
BITMAP
20
70
A8
A8
60
30
28
A8
70
20
ENDCHAR
STARTCHAR percent
ENCODING 37
SWIDTH 692 0
DWIDTH 9 0
BBX 8 8 0 0
BITMAP
61
92
94
68
16
29
49
86
ENDCHAR
STARTCHAR ampersand
ENCODING 38
SWIDTH 538 0
DWIDTH 7 0
BBX 7 8 0 0
BITMAP
20
50
50
24
54
88
94
62
ENDCHAR
STARTCHAR quotesingle
ENCODING 39
SWIDTH 153 0
DWIDTH 2 0
BBX 1 2 0 6
BITMAP
80
80
ENDCHAR
STARTCHAR parenleft
ENCODING 40
SWIDTH 230 0
DWIDTH 3 0
BBX 2 10 0 -2
BITMAP
40
80
80
80
80
80
80
80
80
40
ENDCHAR
STARTCHAR parenright
ENCODING 41
SWIDTH 230 0
DWIDTH 3 0
BBX 2 10 0 -2
BITMAP
80
40
40
40
40
40
40
40
40
80
ENDCHAR
STARTCHAR asterisk
ENCODING 42
SWIDTH 307 0
DWIDTH 4 0
BBX 3 4 0 4
BITMAP
40
E0
E0
40
ENDCHAR
STARTCHAR plus
ENCODING 43
SWIDTH 461 0
DWIDTH 6 0
BBX 5 5 0 1
BITMAP
20
20
F8
20
20
ENDCHAR
STARTCHAR comma
ENCODING 44
SWIDTH 230 0
DWIDTH 3 0
BBX 2 3 0 -2
BITMAP
40
40
80
ENDCHAR
STARTCHAR hyphen
ENCODING 45
SWIDTH 230 0
DWIDTH 3 0
BBX 3 1 0 3
BITMAP
E0
ENDCHAR
STARTCHAR period
ENCODING 46
SWIDTH 230 0
DWIDTH 3 0
BBX 1 1 1 0
BITMAP
80
ENDCHAR
STARTCHAR slash
ENCODING 47
SWIDTH 230 0
DWIDTH 3 0
BBX 2 8 0 0
BITMAP
40
40
40
40
80
80
80
80
ENDCHAR
STARTCHAR zero
ENCODING 48
SWIDTH 461 0
DWIDTH 6 0
BBX 4 8 1 0
BITMAP
60
90
90
90
90
90
90
60
ENDCHAR
STARTCHAR one
ENCODING 49
SWIDTH 461 0
DWIDTH 6 0
BBX 2 8 2 0
BITMAP
40
C0
40
40
40
40
40
40
ENDCHAR
STARTCHAR two
ENCODING 50
SWIDTH 461 0
DWIDTH 6 0
BBX 4 8 1 0
BITMAP
60
90
10
10
20
40
80
F0
ENDCHAR
STARTCHAR three
ENCODING 51
SWIDTH 461 0
DWIDTH 6 0
BBX 4 8 1 0
BITMAP
60
90
10
60
10
10
90
60
ENDCHAR
STARTCHAR four
ENCODING 52
SWIDTH 461 0
DWIDTH 6 0
BBX 5 8 0 0
BITMAP
10
30
50
90
F8
10
10
10
ENDCHAR
STARTCHAR five
ENCODING 53
SWIDTH 461 0
DWIDTH 6 0
BBX 4 8 1 0
BITMAP
F0
80
80
E0
10
10
90
60
ENDCHAR
STARTCHAR six
ENCODING 54
SWIDTH 461 0
DWIDTH 6 0
BBX 4 8 1 0
BITMAP
60
90
80
E0
90
90
90
60
ENDCHAR
STARTCHAR seven
ENCODING 55
SWIDTH 461 0
DWIDTH 6 0
BBX 4 8 1 0
BITMAP
F0
10
20
20
20
40
40
40
ENDCHAR
STARTCHAR eight
ENCODING 56
SWIDTH 461 0
DWIDTH 6 0
BBX 4 8 1 0
BITMAP
60
90
90
60
90
90
90
60
ENDCHAR
STARTCHAR nine
ENCODING 57
SWIDTH 461 0
DWIDTH 6 0
BBX 4 8 1 0
BITMAP
60
90
90
90
70
10
90
60
ENDCHAR
STARTCHAR colon
ENCODING 58
SWIDTH 230 0
DWIDTH 3 0
BBX 1 6 1 0
BITMAP
80
00
00
00
00
80
ENDCHAR
STARTCHAR semicolon
ENCODING 59
SWIDTH 230 0
DWIDTH 3 0
BBX 2 8 0 -2
BITMAP
40
00
00
00
00
40
40
80
ENDCHAR
STARTCHAR less
ENCODING 60
SWIDTH 461 0
DWIDTH 6 0
BBX 3 5 1 1
BITMAP
20
40
80
40
20
ENDCHAR
STARTCHAR equal
ENCODING 61
SWIDTH 461 0
DWIDTH 6 0
BBX 5 3 0 2
BITMAP
F8
00
F8
ENDCHAR
STARTCHAR greater
ENCODING 62
SWIDTH 461 0
DWIDTH 6 0
BBX 3 5 2 1
BITMAP
80
40
20
40
80
ENDCHAR
STARTCHAR question
ENCODING 63
SWIDTH 384 0
DWIDTH 5 0
BBX 4 8 0 0
BITMAP
60
90
10
20
40
40
00
40
ENDCHAR
STARTCHAR at
ENCODING 64
SWIDTH 769 0
DWIDTH 10 0
BBX 8 9 1 -1
BITMAP
3C
42
99
A5
A5
AD
B6
40
38
ENDCHAR
STARTCHAR A
ENCODING 65
SWIDTH 538 0
DWIDTH 7 0
BBX 7 8 0 0
BITMAP
10
10
28
28
44
7C
82
82
ENDCHAR
STARTCHAR B
ENCODING 66
SWIDTH 538 0
DWIDTH 7 0
BBX 5 8 1 0
BITMAP
F0
88
88
F0
88
88
88
F0
ENDCHAR
STARTCHAR C
ENCODING 67
SWIDTH 538 0
DWIDTH 7 0
BBX 6 8 0 0
BITMAP
38
44
80
80
80
80
44
38
ENDCHAR
STARTCHAR D
ENCODING 68
SWIDTH 538 0
DWIDTH 7 0
BBX 6 8 0 0
BITMAP
F0
88
84
84
84
84
88
F0
ENDCHAR
STARTCHAR E
ENCODING 69
SWIDTH 538 0
DWIDTH 7 0
BBX 5 8 1 0
BITMAP
F8
80
80
F8
80
80
80
F8
ENDCHAR
STARTCHAR F
ENCODING 70
SWIDTH 461 0
DWIDTH 6 0
BBX 4 8 1 0
BITMAP
F0
80
80
F0
80
80
80
80
ENDCHAR
STARTCHAR G
ENCODING 71
SWIDTH 538 0
DWIDTH 7 0
BBX 6 8 0 0
BITMAP
38
44
80
80
9C
84
4C
34
ENDCHAR
STARTCHAR H
ENCODING 72
SWIDTH 538 0
DWIDTH 7 0
BBX 6 8 0 0
BITMAP
84
84
84
FC
84
84
84
84
ENDCHAR
STARTCHAR I
ENCODING 73
SWIDTH 153 0
DWIDTH 2 0
BBX 1 8 0 0
BITMAP
80
80
80
80
80
80
80
80
ENDCHAR
STARTCHAR J
ENCODING 74
SWIDTH 384 0
DWIDTH 5 0
BBX 4 8 0 0
BITMAP
10
10
10
10
10
90
90
60
ENDCHAR
STARTCHAR K
ENCODING 75
SWIDTH 538 0
DWIDTH 7 0
BBX 5 8 1 0
BITMAP
88
90
A0
C0
C0
A0
90
88
ENDCHAR
STARTCHAR L
ENCODING 76
SWIDTH 461 0
DWIDTH 6 0
BBX 4 8 1 0
BITMAP
80
80
80
80
80
80
80
F0
ENDCHAR
STARTCHAR M
ENCODING 77
SWIDTH 615 0
DWIDTH 8 0
BBX 7 8 0 0
BITMAP
82
82
C6
C6
AA
AA
92
92
ENDCHAR
STARTCHAR N
ENCODING 78
SWIDTH 538 0
DWIDTH 7 0
BBX 6 8 0 0
BITMAP
84
C4
C4
A4
94
94
8C
84
ENDCHAR
STARTCHAR O
ENCODING 79
SWIDTH 615 0
DWIDTH 8 0
BBX 7 8 0 0
BITMAP
38
44
82
82
82
82
44
38
ENDCHAR
STARTCHAR P
ENCODING 80
SWIDTH 538 0
DWIDTH 7 0
BBX 5 8 1 0
BITMAP
F0
88
88
88
F0
80
80
80
ENDCHAR
STARTCHAR Q
ENCODING 81
SWIDTH 615 0
DWIDTH 8 0
BBX 7 8 0 0
BITMAP
38
44
82
82
82
8A
44
3A
ENDCHAR
STARTCHAR R
ENCODING 82
SWIDTH 538 0
DWIDTH 7 0
BBX 6 8 0 0
BITMAP
F8
84
84
84
F8
84
84
84
ENDCHAR
STARTCHAR S
ENCODING 83
SWIDTH 538 0
DWIDTH 7 0
BBX 5 8 1 0
BITMAP
70
88
80
70
08
08
88
70
ENDCHAR
STARTCHAR T
ENCODING 84
SWIDTH 461 0
DWIDTH 6 0
BBX 5 8 0 0
BITMAP
F8
20
20
20
20
20
20
20
ENDCHAR
STARTCHAR U
ENCODING 85
SWIDTH 538 0
DWIDTH 7 0
BBX 6 8 0 0
BITMAP
84
84
84
84
84
84
48
30
ENDCHAR
STARTCHAR V
ENCODING 86
SWIDTH 538 0
DWIDTH 7 0
BBX 5 8 1 0
BITMAP
88
88
50
50
50
20
20
20
ENDCHAR
STARTCHAR W
ENCODING 87
SWIDTH 692 0
DWIDTH 9 0
BBX 9 8 0 0
BITMAP
8880
8880
4900
5500
5500
2200
2200
2200
ENDCHAR
STARTCHAR X
ENCODING 88
SWIDTH 461 0
DWIDTH 6 0
BBX 5 8 0 0
BITMAP
88
50
50
20
20
50
50
88
ENDCHAR
STARTCHAR Y
ENCODING 89
SWIDTH 461 0
DWIDTH 6 0
BBX 5 8 0 0
BITMAP
88
88
50
50
20
20
20
20
ENDCHAR
STARTCHAR Z
ENCODING 90
SWIDTH 461 0
DWIDTH 6 0
BBX 5 8 0 0
BITMAP
F8
08
10
20
20
40
80
F8
ENDCHAR
STARTCHAR bracketleft
ENCODING 91
SWIDTH 230 0
DWIDTH 3 0
BBX 2 10 0 -2
BITMAP
C0
80
80
80
80
80
80
80
80
C0
ENDCHAR
STARTCHAR backslash
ENCODING 92
SWIDTH 230 0
DWIDTH 3 0
BBX 2 8 0 0
BITMAP
80
80
80
80
40
40
40
40
ENDCHAR
STARTCHAR bracketright
ENCODING 93
SWIDTH 230 0
DWIDTH 3 0
BBX 2 10 0 -2
BITMAP
C0
40
40
40
40
40
40
40
40
C0
ENDCHAR
STARTCHAR asciicircum
ENCODING 94
SWIDTH 230 0
DWIDTH 3 0
BBX 3 2 0 6
BITMAP
40
A0
ENDCHAR
STARTCHAR underscore
ENCODING 95
SWIDTH 461 0
DWIDTH 6 0
BBX 6 1 0 -2
BITMAP
FC
ENDCHAR
STARTCHAR grave
ENCODING 96
SWIDTH 230 0
DWIDTH 3 0
BBX 2 2 0 6
BITMAP
80
40
ENDCHAR
STARTCHAR a
ENCODING 97
SWIDTH 384 0
DWIDTH 5 0
BBX 5 6 0 0
BITMAP
60
90
70
90
90
68
ENDCHAR
STARTCHAR b
ENCODING 98
SWIDTH 461 0
DWIDTH 6 0
BBX 4 8 1 0
BITMAP
80
80
E0
90
90
90
90
E0
ENDCHAR
STARTCHAR c
ENCODING 99
SWIDTH 384 0
DWIDTH 5 0
BBX 4 6 0 0
BITMAP
60
90
80
80
90
60
ENDCHAR
STARTCHAR d
ENCODING 100
SWIDTH 461 0
DWIDTH 6 0
BBX 4 8 1 0
BITMAP
10
10
70
90
90
90
90
70
ENDCHAR
STARTCHAR e
ENCODING 101
SWIDTH 461 0
DWIDTH 6 0
BBX 4 6 1 0
BITMAP
60
90
F0
80
90
60
ENDCHAR
STARTCHAR f
ENCODING 102
SWIDTH 230 0
DWIDTH 3 0
BBX 2 8 0 0
BITMAP
40
80
C0
80
80
80
80
80
ENDCHAR
STARTCHAR g
ENCODING 103
SWIDTH 461 0
DWIDTH 6 0
BBX 4 8 1 -2
BITMAP
70
90
90
90
90
70
90
60
ENDCHAR
STARTCHAR h
ENCODING 104
SWIDTH 461 0
DWIDTH 6 0
BBX 4 8 1 0
BITMAP
80
80
A0
D0
90
90
90
90
ENDCHAR
STARTCHAR i
ENCODING 105
SWIDTH 153 0
DWIDTH 2 0
BBX 1 8 0 0
BITMAP
80
00
80
80
80
80
80
80
ENDCHAR
STARTCHAR j
ENCODING 106
SWIDTH 153 0
DWIDTH 2 0
BBX 1 10 0 -2
BITMAP
80
00
80
80
80
80
80
80
80
80
ENDCHAR
STARTCHAR k
ENCODING 107
SWIDTH 384 0
DWIDTH 5 0
BBX 4 8 0 0
BITMAP
80
80
90
A0
C0
C0
A0
90
ENDCHAR
STARTCHAR l
ENCODING 108
SWIDTH 153 0
DWIDTH 2 0
BBX 1 8 0 0
BITMAP
80
80
80
80
80
80
80
80
ENDCHAR
STARTCHAR m
ENCODING 109
SWIDTH 615 0
DWIDTH 8 0
BBX 7 6 0 0
BITMAP
AC
D2
92
92
92
92
ENDCHAR
STARTCHAR n
ENCODING 110
SWIDTH 461 0
DWIDTH 6 0
BBX 5 6 0 0
BITMAP
B0
C8
88
88
88
88
ENDCHAR
STARTCHAR o
ENCODING 111
SWIDTH 461 0
DWIDTH 6 0
BBX 4 6 1 0
BITMAP
60
90
90
90
90
60
ENDCHAR
STARTCHAR p
ENCODING 112
SWIDTH 461 0
DWIDTH 6 0
BBX 4 8 1 -2
BITMAP
E0
90
90
90
90
E0
80
80
ENDCHAR
STARTCHAR q
ENCODING 113
SWIDTH 461 0
DWIDTH 6 0
BBX 4 8 1 -2
BITMAP
70
90
90
90
90
70
10
10
ENDCHAR
STARTCHAR r
ENCODING 114
SWIDTH 230 0
DWIDTH 3 0
BBX 3 6 0 0
BITMAP
A0
C0
80
80
80
80
ENDCHAR
STARTCHAR s
ENCODING 115
SWIDTH 384 0
DWIDTH 5 0
BBX 4 6 0 0
BITMAP
60
90
60
10
90
60
ENDCHAR
STARTCHAR t
ENCODING 116
SWIDTH 230 0
DWIDTH 3 0
BBX 2 8 0 0
BITMAP
80
80
C0
80
80
80
80
40
ENDCHAR
STARTCHAR u
ENCODING 117
SWIDTH 461 0
DWIDTH 6 0
BBX 4 6 1 0
BITMAP
90
90
90
90
B0
50
ENDCHAR
STARTCHAR v
ENCODING 118
SWIDTH 384 0
DWIDTH 5 0
BBX 5 6 0 0
BITMAP
88
88
50
50
20
20
ENDCHAR
STARTCHAR w
ENCODING 119
SWIDTH 538 0
DWIDTH 7 0
BBX 7 6 0 0
BITMAP
82
82
54
54
28
28
ENDCHAR
STARTCHAR x
ENCODING 120
SWIDTH 384 0
DWIDTH 5 0
BBX 5 6 0 0
BITMAP
88
50
20
20
50
88
ENDCHAR
STARTCHAR y
ENCODING 121
SWIDTH 384 0
DWIDTH 5 0
BBX 5 8 0 -2
BITMAP
88
88
50
50
20
20
40
40
ENDCHAR
STARTCHAR z
ENCODING 122
SWIDTH 384 0
DWIDTH 5 0
BBX 4 6 0 0
BITMAP
F0
10
20
40
80
F0
ENDCHAR
STARTCHAR braceleft
ENCODING 123
SWIDTH 230 0
DWIDTH 3 0
BBX 3 10 0 -2
BITMAP
20
40
40
40
80
40
40
40
40
20
ENDCHAR
STARTCHAR bar
ENCODING 124
SWIDTH 153 0
DWIDTH 2 0
BBX 1 10 0 -2
BITMAP
80
80
80
80
80
80
80
80
80
80
ENDCHAR
STARTCHAR braceright
ENCODING 125
SWIDTH 230 0
DWIDTH 3 0
BBX 3 10 0 -2
BITMAP
80
40
40
40
20
40
40
40
40
80
ENDCHAR
STARTCHAR asciitilde
ENCODING 126
SWIDTH 461 0
DWIDTH 6 0
BBX 5 2 0 3
BITMAP
68
B0
ENDCHAR
STARTCHAR Adieresis
ENCODING 128
SWIDTH 538 0
DWIDTH 7 0
BBX 7 10 0 0
BITMAP
28
00
10
10
28
28
44
7C
82
82
ENDCHAR
STARTCHAR Aring
ENCODING 129
SWIDTH 538 0
DWIDTH 7 0
BBX 7 10 0 0
BITMAP
7C
00
10
10
28
28
44
7C
82
82
ENDCHAR
STARTCHAR Ccedilla
ENCODING 130
SWIDTH 384 0
DWIDTH 5 0
BBX 5 8 0 0
BITMAP
F0
00
60
90
70
90
90
68
ENDCHAR
STARTCHAR Eacute
ENCODING 131
SWIDTH 538 0
DWIDTH 7 0
BBX 5 11 1 0
BITMAP
10
20
00
F8
80
80
F8
80
80
80
F8
ENDCHAR
STARTCHAR Ntilde
ENCODING 132
SWIDTH 538 0
DWIDTH 7 0
BBX 7 10 0 -2
BITMAP
10
10
28
28
44
7C
82
82
04
06
ENDCHAR
STARTCHAR Odieresis
ENCODING 133
SWIDTH 615 0
DWIDTH 8 0
BBX 7 10 0 0
BITMAP
44
00
38
44
82
82
82
82
44
38
ENDCHAR
STARTCHAR Udieresis
ENCODING 134
SWIDTH 538 0
DWIDTH 7 0
BBX 6 10 0 0
BITMAP
48
00
84
84
84
84
84
84
48
30
ENDCHAR
STARTCHAR aacute
ENCODING 135
SWIDTH 384 0
DWIDTH 5 0
BBX 5 9 0 0
BITMAP
20
40
00
60
90
70
90
90
68
ENDCHAR
STARTCHAR agrave
ENCODING 136
SWIDTH 384 0
DWIDTH 5 0
BBX 5 8 0 -2
BITMAP
60
90
70
90
90
68
10
18
ENDCHAR
STARTCHAR acircumflex
ENCODING 137
SWIDTH 538 0
DWIDTH 7 0
BBX 6 11 0 0
BITMAP
28
10
00
38
44
80
80
80
80
44
38
ENDCHAR
STARTCHAR adieresis
ENCODING 138
SWIDTH 384 0
DWIDTH 5 0
BBX 5 8 0 0
BITMAP
90
00
60
90
70
90
90
68
ENDCHAR
STARTCHAR atilde
ENCODING 139
SWIDTH 384 0
DWIDTH 5 0
BBX 4 9 0 0
BITMAP
90
60
00
60
90
80
80
90
60
ENDCHAR
STARTCHAR aring
ENCODING 140
SWIDTH 538 0
DWIDTH 7 0
BBX 6 11 0 0
BITMAP
08
10
00
38
44
80
80
80
80
44
38
ENDCHAR
STARTCHAR ccedilla
ENCODING 141
SWIDTH 384 0
DWIDTH 5 0
BBX 4 9 0 0
BITMAP
20
40
00
60
90
80
80
90
60
ENDCHAR
STARTCHAR eacute
ENCODING 142
SWIDTH 461 0
DWIDTH 6 0
BBX 4 9 1 0
BITMAP
20
40
00
60
90
F0
80
90
60
ENDCHAR
STARTCHAR egrave
ENCODING 143
SWIDTH 461 0
DWIDTH 6 0
BBX 5 11 0 0
BITMAP
10
20
00
F8
08
10
20
20
40
80
F8
ENDCHAR
STARTCHAR ecircumflex
ENCODING 144
SWIDTH 384 0
DWIDTH 5 0
BBX 4 9 0 0
BITMAP
20
40
00
F0
10
20
40
80
F0
ENDCHAR
STARTCHAR edieresis
ENCODING 145
SWIDTH 538 0
DWIDTH 7 0
BBX 6 11 0 0
BITMAP
50
20
00
F0
88
84
84
84
84
88
F0
ENDCHAR
STARTCHAR iacute
ENCODING 146
SWIDTH 230 0
DWIDTH 3 0
BBX 2 9 1 0
BITMAP
40
80
00
80
80
80
80
80
80
ENDCHAR
STARTCHAR igrave
ENCODING 147
SWIDTH 538 0
DWIDTH 7 0
BBX 6 9 1 0
BITMAP
04
14
10
70
90
90
90
90
70
ENDCHAR
STARTCHAR icircumflex
ENCODING 148
SWIDTH 538 0
DWIDTH 7 0
BBX 5 10 1 0
BITMAP
F8
00
F8
80
80
F8
80
80
80
F8
ENDCHAR
STARTCHAR idieresis
ENCODING 149
SWIDTH 461 0
DWIDTH 6 0
BBX 4 8 1 0
BITMAP
F0
00
60
90
F0
80
90
60
ENDCHAR
STARTCHAR ntilde
ENCODING 150
SWIDTH 538 0
DWIDTH 7 0
BBX 5 10 1 0
BITMAP
20
00
F8
80
80
F8
80
80
80
F8
ENDCHAR
STARTCHAR oacute
ENCODING 151
SWIDTH 461 0
DWIDTH 6 0
BBX 4 9 1 0
BITMAP
20
40
00
60
90
90
90
90
60
ENDCHAR
STARTCHAR ograve
ENCODING 152
SWIDTH 461 0
DWIDTH 6 0
BBX 4 8 1 0
BITMAP
20
00
60
90
F0
80
90
60
ENDCHAR
STARTCHAR ocircumflex
ENCODING 153
SWIDTH 461 0
DWIDTH 6 0
BBX 4 9 1 0
BITMAP
60
90
00
60
90
90
90
90
60
ENDCHAR
STARTCHAR odieresis
ENCODING 154
SWIDTH 461 0
DWIDTH 6 0
BBX 4 8 1 0
BITMAP
90
00
60
90
90
90
90
60
ENDCHAR
STARTCHAR otilde
ENCODING 155
SWIDTH 461 0
DWIDTH 6 0
BBX 4 9 1 0
BITMAP
50
A0
00
60
90
90
90
90
60
ENDCHAR
STARTCHAR uacute
ENCODING 156
SWIDTH 461 0
DWIDTH 6 0
BBX 4 9 1 0
BITMAP
20
40
00
90
90
90
90
B0
50
ENDCHAR
STARTCHAR ugrave
ENCODING 157
SWIDTH 538 0
DWIDTH 7 0
BBX 5 11 1 0
BITMAP
50
20
00
F8
80
80
F8
80
80
80
F8
ENDCHAR
STARTCHAR ucircumflex
ENCODING 158
SWIDTH 461 0
DWIDTH 6 0
BBX 4 9 1 0
BITMAP
90
60
00
60
90
F0
80
90
60
ENDCHAR
STARTCHAR udieresis
ENCODING 159
SWIDTH 461 0
DWIDTH 6 0
BBX 4 8 1 0
BITMAP
90
00
90
90
90
90
B0
50
ENDCHAR
STARTCHAR dagger
ENCODING 160
SWIDTH 461 0
DWIDTH 6 0
BBX 5 10 0 -2
BITMAP
20
20
F8
20
20
20
20
20
20
20
ENDCHAR
STARTCHAR degree
ENCODING 161
SWIDTH 230 0
DWIDTH 3 0
BBX 3 4 0 4
BITMAP
40
A0
A0
40
ENDCHAR
STARTCHAR cent
ENCODING 162
SWIDTH 538 0
DWIDTH 7 0
BBX 5 10 1 -2
BITMAP
F8
80
80
F8
80
80
80
F8
20
30
ENDCHAR
STARTCHAR sterling
ENCODING 163
SWIDTH 461 0
DWIDTH 6 0
BBX 5 8 0 0
BITMAP
30
48
40
F0
40
40
48
F0
ENDCHAR
STARTCHAR section
ENCODING 164
SWIDTH 461 0
DWIDTH 6 0
BBX 4 9 1 -1
BITMAP
60
90
40
A0
90
50
20
90
60
ENDCHAR
STARTCHAR bullet
ENCODING 165
SWIDTH 307 0
DWIDTH 4 0
BBX 3 3 0 2
BITMAP
E0
E0
E0
ENDCHAR
STARTCHAR paragraph
ENCODING 166
SWIDTH 384 0
DWIDTH 5 0
BBX 5 10 0 -2
BITMAP
78
D0
D0
D0
D0
50
50
50
50
50
ENDCHAR
STARTCHAR germandbls
ENCODING 167
SWIDTH 461 0
DWIDTH 6 0
BBX 4 8 1 0
BITMAP
60
90
90
A0
90
90
90
A0
ENDCHAR
STARTCHAR registered
ENCODING 168
SWIDTH 615 0
DWIDTH 8 0
BBX 7 7 0 0
BITMAP
38
44
BA
B2
AA
44
38
ENDCHAR
STARTCHAR copyright
ENCODING 169
SWIDTH 615 0
DWIDTH 8 0
BBX 7 7 0 0
BITMAP
38
44
9A
A2
9A
44
38
ENDCHAR
STARTCHAR trademark
ENCODING 170
SWIDTH 692 0
DWIDTH 9 0
BBX 8 4 0 3
BITMAP
F1
5B
55
51
ENDCHAR
STARTCHAR acute
ENCODING 171
SWIDTH 461 0
DWIDTH 6 0
BBX 4 8 1 -2
BITMAP
60
90
F0
80
90
60
40
60
ENDCHAR
STARTCHAR dieresis
ENCODING 172
SWIDTH 230 0
DWIDTH 3 0
BBX 3 1 0 9
BITMAP
A0
ENDCHAR
STARTCHAR notequal
ENCODING 173
SWIDTH 384 0
DWIDTH 5 0
BBX 4 5 0 1
BITMAP
10
F0
20
F0
40
ENDCHAR
STARTCHAR AE
ENCODING 174
SWIDTH 461 0
DWIDTH 6 0
BBX 4 11 1 -2
BITMAP
10
20
00
70
90
90
90
90
70
90
60
ENDCHAR
STARTCHAR Oslash
ENCODING 175
SWIDTH 153 0
DWIDTH 2 0
BBX 2 10 0 -2
BITMAP
80
80
80
80
80
80
80
80
80
40
ENDCHAR
STARTCHAR infinity
ENCODING 176
SWIDTH 153 0
DWIDTH 2 0
BBX 2 10 0 -2
BITMAP
80
00
80
80
80
80
80
80
80
40
ENDCHAR
STARTCHAR plusminus
ENCODING 177
SWIDTH 230 0
DWIDTH 3 0
BBX 3 10 0 0
BITMAP
E0
00
40
40
40
40
40
40
40
40
ENDCHAR
STARTCHAR lessequal
ENCODING 178
SWIDTH 461 0
DWIDTH 6 0
BBX 4 5 1 0
BITMAP
20
40
80
40
F0
ENDCHAR
STARTCHAR greaterequal
ENCODING 179
SWIDTH 461 0
DWIDTH 6 0
BBX 4 5 1 0
BITMAP
40
20
10
20
F0
ENDCHAR
STARTCHAR yen
ENCODING 180
SWIDTH 230 0
DWIDTH 3 0
BBX 3 8 0 0
BITMAP
E0
00
40
40
40
40
40
40
ENDCHAR
STARTCHAR mu
ENCODING 181
SWIDTH 538 0
DWIDTH 7 0
BBX 5 10 1 -2
BITMAP
88
90
A0
C0
C0
A0
90
88
20
40
ENDCHAR
STARTCHAR partialdiff
ENCODING 182
SWIDTH 384 0
DWIDTH 5 0
BBX 4 7 0 0
BITMAP
60
10
70
90
90
90
60
ENDCHAR
STARTCHAR summation
ENCODING 183
SWIDTH 538 0
DWIDTH 7 0
BBX 6 8 0 -1
BITMAP
FC
44
20
10
10
20
44
FC
ENDCHAR
STARTCHAR product
ENCODING 184
SWIDTH 230 0
DWIDTH 3 0
BBX 3 8 0 0
BITMAP
40
40
40
60
C0
40
40
40
ENDCHAR
STARTCHAR pi
ENCODING 185
SWIDTH 461 0
DWIDTH 6 0
BBX 4 10 1 -2
BITMAP
80
80
80
80
80
80
80
F0
40
80
ENDCHAR
STARTCHAR integral
ENCODING 186
SWIDTH 153 0
DWIDTH 2 0
BBX 2 10 0 -2
BITMAP
40
40
40
40
40
40
40
40
40
80
ENDCHAR
STARTCHAR ordfeminine
ENCODING 187
SWIDTH 461 0
DWIDTH 6 0
BBX 4 9 1 0
BITMAP
20
A0
80
80
80
80
80
80
F0
ENDCHAR
STARTCHAR ordmasculine
ENCODING 188
SWIDTH 230 0
DWIDTH 3 0
BBX 3 9 0 0
BITMAP
20
A0
80
80
80
80
80
80
80
ENDCHAR
STARTCHAR Omega
ENCODING 189
SWIDTH 461 0
DWIDTH 6 0
BBX 4 11 1 0
BITMAP
20
40
00
80
80
80
80
80
80
80
F0
ENDCHAR
STARTCHAR ae
ENCODING 190
SWIDTH 153 0
DWIDTH 2 0
BBX 2 11 0 0
BITMAP
40
80
00
80
80
80
80
80
80
80
80
ENDCHAR
STARTCHAR oslash
ENCODING 191
SWIDTH 538 0
DWIDTH 7 0
BBX 6 10 0 -2
BITMAP
84
C4
C4
A4
94
94
8C
84
10
20
ENDCHAR
STARTCHAR questiondown
ENCODING 192
SWIDTH 461 0
DWIDTH 6 0
BBX 5 8 0 -2
BITMAP
B0
C8
88
88
88
88
20
40
ENDCHAR
STARTCHAR exclamdown
ENCODING 193
SWIDTH 538 0
DWIDTH 7 0
BBX 6 11 0 0
BITMAP
08
10
00
84
C4
C4
A4
94
94
8C
84
ENDCHAR
STARTCHAR logicalnot
ENCODING 194
SWIDTH 461 0
DWIDTH 6 0
BBX 5 3 0 1
BITMAP
F8
08
08
ENDCHAR
STARTCHAR radical
ENCODING 195
SWIDTH 384 0
DWIDTH 5 0
BBX 5 7 0 0
BITMAP
08
08
08
D0
50
20
20
ENDCHAR
STARTCHAR florin
ENCODING 196
SWIDTH 461 0
DWIDTH 6 0
BBX 5 9 0 0
BITMAP
10
20
00
B0
C8
88
88
88
88
ENDCHAR
STARTCHAR approxequal
ENCODING 197
SWIDTH 538 0
DWIDTH 7 0
BBX 6 11 0 0
BITMAP
48
30
00
84
C4
C4
A4
94
94
8C
84
ENDCHAR
STARTCHAR Delta
ENCODING 198
SWIDTH 461 0
DWIDTH 6 0
BBX 5 7 0 0
BITMAP
20
20
20
50
50
88
F8
ENDCHAR
STARTCHAR guillemotleft
ENCODING 199
SWIDTH 461 0
DWIDTH 6 0
BBX 5 5 0 1
BITMAP
28
50
A0
50
28
ENDCHAR
STARTCHAR guillemotright
ENCODING 200
SWIDTH 461 0
DWIDTH 6 0
BBX 5 5 0 1
BITMAP
A0
50
28
50
A0
ENDCHAR
STARTCHAR ellipsis
ENCODING 201
SWIDTH 769 0
DWIDTH 10 0
BBX 7 1 1 0
BITMAP
92
ENDCHAR
STARTCHAR nbspace
ENCODING 202
SWIDTH 461 0
DWIDTH 6 0
BBX 0 0 0 -2
BITMAP
ENDCHAR
STARTCHAR Agrave
ENCODING 203
SWIDTH 461 0
DWIDTH 6 0
BBX 5 9 0 0
BITMAP
50
20
00
B0
C8
88
88
88
88
ENDCHAR
STARTCHAR Atilde
ENCODING 204
SWIDTH 615 0
DWIDTH 8 0
BBX 7 11 0 0
BITMAP
24
48
00
38
44
82
82
82
82
44
38
ENDCHAR
STARTCHAR Otilde
ENCODING 205
SWIDTH 615 0
DWIDTH 8 0
BBX 7 11 0 0
BITMAP
34
58
00
38
44
82
82
82
82
44
38
ENDCHAR
STARTCHAR OE
ENCODING 206
SWIDTH 461 0
DWIDTH 6 0
BBX 5 9 1 0
BITMAP
48
90
00
60
90
90
90
90
60
ENDCHAR
STARTCHAR oe
ENCODING 207
SWIDTH 615 0
DWIDTH 8 0
BBX 7 10 0 0
BITMAP
7C
00
38
44
82
82
82
82
44
38
ENDCHAR
STARTCHAR endash
ENCODING 208
SWIDTH 461 0
DWIDTH 6 0
BBX 5 1 0 3
BITMAP
F8
ENDCHAR
STARTCHAR emdash
ENCODING 209
SWIDTH 769 0
DWIDTH 10 0
BBX 9 1 0 3
BITMAP
FF80
ENDCHAR
STARTCHAR quotedblleft
ENCODING 210
SWIDTH 307 0
DWIDTH 4 0
BBX 4 3 0 5
BITMAP
50
A0
A0
ENDCHAR
STARTCHAR quotedblright
ENCODING 211
SWIDTH 307 0
DWIDTH 4 0
BBX 4 3 0 5
BITMAP
50
50
A0
ENDCHAR
STARTCHAR quoteleft
ENCODING 212
SWIDTH 153 0
DWIDTH 2 0
BBX 2 3 0 5
BITMAP
40
80
80
ENDCHAR
STARTCHAR quoteright
ENCODING 213
SWIDTH 153 0
DWIDTH 2 0
BBX 2 3 0 5
BITMAP
40
40
80
ENDCHAR
STARTCHAR divide
ENCODING 214
SWIDTH 461 0
DWIDTH 6 0
BBX 5 5 0 0
BITMAP
20
00
F8
00
20
ENDCHAR
STARTCHAR lozenge
ENCODING 215
SWIDTH 384 0
DWIDTH 5 0
BBX 5 7 0 0
BITMAP
20
20
50
88
50
20
20
ENDCHAR
STARTCHAR ydieresis
ENCODING 216
SWIDTH 461 0
DWIDTH 6 0
BBX 4 8 1 0
BITMAP
F0
00
60
90
90
90
90
60
ENDCHAR
STARTCHAR Ydieresis
ENCODING 217
SWIDTH 538 0
DWIDTH 7 0
BBX 6 11 0 0
BITMAP
10
20
00
F8
84
84
84
F8
84
84
84
ENDCHAR
STARTCHAR fraction
ENCODING 218
SWIDTH 230 0
DWIDTH 3 0
BBX 3 9 0 0
BITMAP
20
40
00
A0
C0
80
80
80
80
ENDCHAR
STARTCHAR currency
ENCODING 219
SWIDTH 538 0
DWIDTH 7 0
BBX 6 11 0 0
BITMAP
48
30
00
F8
84
84
84
F8
84
84
84
ENDCHAR
STARTCHAR guilsinglleft
ENCODING 220
SWIDTH 230 0
DWIDTH 3 0
BBX 3 5 0 1
BITMAP
20
40
80
40
20
ENDCHAR
STARTCHAR guilsinglright
ENCODING 221
SWIDTH 230 0
DWIDTH 3 0
BBX 3 5 0 1
BITMAP
80
40
20
40
80
ENDCHAR
STARTCHAR fi
ENCODING 222
SWIDTH 230 0
DWIDTH 3 0
BBX 3 9 0 0
BITMAP
A0
40
00
A0
C0
80
80
80
80
ENDCHAR
STARTCHAR fl
ENCODING 223
SWIDTH 538 0
DWIDTH 7 0
BBX 6 10 0 -2
BITMAP
F8
84
84
84
F8
84
84
84
10
20
ENDCHAR
STARTCHAR daggerdbl
ENCODING 224
SWIDTH 230 0
DWIDTH 3 0
BBX 3 8 0 -2
BITMAP
A0
C0
80
80
80
80
40
80
ENDCHAR
STARTCHAR periodcentered
ENCODING 225
SWIDTH 538 0
DWIDTH 7 0
BBX 5 11 1 0
BITMAP
50
20
00
70
88
80
70
08
08
88
70
ENDCHAR
STARTCHAR quotesinglbase
ENCODING 226
SWIDTH 153 0
DWIDTH 2 0
BBX 2 3 0 -2
BITMAP
40
40
80
ENDCHAR
STARTCHAR quotedblbase
ENCODING 227
SWIDTH 307 0
DWIDTH 4 0
BBX 4 3 0 -2
BITMAP
50
50
A0
ENDCHAR
STARTCHAR perthousand
ENCODING 228
SWIDTH 384 0
DWIDTH 5 0
BBX 4 9 0 0
BITMAP
90
60
00
60
90
60
10
90
60
ENDCHAR
STARTCHAR Acircumflex
ENCODING 229
SWIDTH 538 0
DWIDTH 7 0
BBX 5 11 1 0
BITMAP
10
20
00
70
88
80
70
08
08
88
70
ENDCHAR
STARTCHAR Ecircumflex
ENCODING 230
SWIDTH 384 0
DWIDTH 5 0
BBX 4 9 0 0
BITMAP
20
40
00
60
90
60
10
90
60
ENDCHAR
STARTCHAR Aacute
ENCODING 231
SWIDTH 538 0
DWIDTH 7 0
BBX 7 11 0 0
BITMAP
08
10
00
10
10
28
28
44
7C
82
82
ENDCHAR
STARTCHAR Edieresis
ENCODING 232
SWIDTH 461 0
DWIDTH 6 0
BBX 5 11 0 0
BITMAP
50
20
00
F8
20
20
20
20
20
20
20
ENDCHAR
STARTCHAR Egrave
ENCODING 233
SWIDTH 230 0
DWIDTH 3 0
BBX 3 9 0 0
BITMAP
20
A0
80
C0
80
80
80
80
40
ENDCHAR
STARTCHAR Iacute
ENCODING 234
SWIDTH 230 0
DWIDTH 3 0
BBX 2 11 1 0
BITMAP
40
80
00
80
80
80
80
80
80
80
80
ENDCHAR
STARTCHAR Icircumflex
ENCODING 235
SWIDTH 461 0
DWIDTH 6 0
BBX 5 11 0 0
BITMAP
50
20
00
F8
08
10
20
20
40
80
F8
ENDCHAR
STARTCHAR Idieresis
ENCODING 236
SWIDTH 384 0
DWIDTH 5 0
BBX 4 9 0 0
BITMAP
90
60
00
F0
10
20
40
80
F0
ENDCHAR
STARTCHAR Igrave
ENCODING 237
SWIDTH 538 0
DWIDTH 7 0
BBX 6 10 0 0
BITMAP
78
00
84
84
84
84
84
84
48
30
ENDCHAR
STARTCHAR Oacute
ENCODING 238
SWIDTH 615 0
DWIDTH 8 0
BBX 7 11 0 0
BITMAP
08
10
00
38
44
82
82
82
82
44
38
ENDCHAR
STARTCHAR Ocircumflex
ENCODING 239
SWIDTH 615 0
DWIDTH 8 0
BBX 7 11 0 0
BITMAP
10
28
00
38
44
82
82
82
82
44
38
ENDCHAR
STARTCHAR apple
ENCODING 240
SWIDTH 461 0
DWIDTH 6 0
BBX 4 8 1 0
BITMAP
F0
00
90
90
90
90
B0
50
ENDCHAR
STARTCHAR Ograve
ENCODING 241
SWIDTH 538 0
DWIDTH 7 0
BBX 6 11 0 0
BITMAP
30
48
30
84
84
84
84
84
84
48
30
ENDCHAR
STARTCHAR Uacute
ENCODING 242
SWIDTH 615 0
DWIDTH 8 0
BBX 6 11 1 0
BITMAP
10
20
00
84
84
84
84
84
84
48
30
ENDCHAR
STARTCHAR Ucircumflex
ENCODING 243
SWIDTH 461 0
DWIDTH 6 0
BBX 4 9 1 0
BITMAP
60
60
00
90
90
90
90
B0
50
ENDCHAR
STARTCHAR Ugrave
ENCODING 244
SWIDTH 538 0
DWIDTH 7 0
BBX 6 11 0 0
BITMAP
24
48
00
84
84
84
84
84
84
48
30
ENDCHAR
STARTCHAR dotlessi
ENCODING 245
SWIDTH 461 0
DWIDTH 6 0
BBX 4 9 1 0
BITMAP
50
A0
00
90
90
90
90
B0
50
ENDCHAR
STARTCHAR circumflex
ENCODING 246
SWIDTH 538 0
DWIDTH 7 0
BBX 6 10 0 -2
BITMAP
84
84
84
84
84
84
48
30
10
08
ENDCHAR
STARTCHAR tilde
ENCODING 247
SWIDTH 461 0
DWIDTH 6 0
BBX 5 8 1 -2
BITMAP
90
90
90
90
B0
50
10
08
ENDCHAR
STARTCHAR macron
ENCODING 248
SWIDTH 461 0
DWIDTH 6 0
BBX 5 11 0 0
BITMAP
10
20
00
88
88
50
50
20
20
20
20
ENDCHAR
STARTCHAR breve
ENCODING 249
SWIDTH 384 0
DWIDTH 5 0
BBX 5 11 0 -2
BITMAP
10
20
00
88
88
50
50
20
20
40
40
ENDCHAR
STARTCHAR dotaccent
ENCODING 250
SWIDTH 384 0
DWIDTH 5 0
BBX 4 10 0 -2
BITMAP
80
80
90
A0
C0
C0
A0
90
40
80
ENDCHAR
STARTCHAR ring
ENCODING 251
SWIDTH 461 0
DWIDTH 6 0
BBX 5 10 0 0
BITMAP
20
00
F8
08
10
20
20
40
80
F8
ENDCHAR
STARTCHAR cedilla
ENCODING 252
SWIDTH 461 0
DWIDTH 6 0
BBX 5 8 0 0
BITMAP
40
40
40
60
C0
40
40
78
ENDCHAR
STARTCHAR hungarumlaut
ENCODING 253
SWIDTH 384 0
DWIDTH 5 0
BBX 4 8 0 0
BITMAP
20
00
F0
10
20
40
80
F0
ENDCHAR
STARTCHAR ogonek
ENCODING 254
SWIDTH 538 0
DWIDTH 7 0
BBX 6 10 0 -2
BITMAP
38
44
80
80
9C
84
4C
34
10
20
ENDCHAR
STARTCHAR caron
ENCODING 255
SWIDTH 307 0
DWIDTH 4 0
BBX 3 2 0 6
BITMAP
A0
40
ENDCHAR
ENDFONT
